<!-- <svg xmlns="http://www.w3.org/2000/svg" viewBox="0 0 841.9 595.3">
    <g fill="#FF0000">
        <path d="M666.3 296.5c0-32.5-40.7-63.3-103.1-82.4 14.4-63.6 8-114.2-20.2-130.4-6.5-3.8-14.1-5.6-22.4-5.6v22.3c4.6 0 8.3.9 11.4 2.6 13.6 7.8 19.5 37.5 14.9 75.7-1.1 9.4-2.9 19.3-5.1 29.4-19.6-4.8-41-8.5-63.5-10.9-13.5-18.5-27.5-35.3-41.6-50 32.6-30.3 63.2-46.9 84-46.9V78c-27.5 0-63.5 19.6-99.9 53.6-36.4-33.8-72.4-53.2-99.9-53.2v22.3c20.7 0 51.4 16.5 84 46.6-14 14.7-28 31.4-41.3 49.9-22.6 2.4-44 6.1-63.6 11-2.3-10-4-19.7-5.2-29-4.7-38.2 1.1-67.9 14.6-75.8 3-1.8 6.9-2.6 11.5-2.6V78.5c-8.4 0-16 1.8-22.6 5.6-28.1 16.2-34.4 66.7-19.9 130.1-62.2 19.2-102.7 49.9-102.7 82.3 0 32.5 40.7 63.3 103.1 82.4-14.4 63.6-8 114.2 20.2 130.4 6.5 3.8 14.1 5.6 22.5 5.6 27.5 0 63.5-19.6 99.9-53.6 36.4 33.8 72.4 53.2 99.9 53.2 8.4 0 16-1.8 22.6-5.6 28.1-16.2 34.4-66.7 19.9-130.1 62-19.1 102.5-49.9 102.5-82.3zm-130.2-66.7c-3.7 12.9-8.3 26.2-13.5 39.5-4.1-8-8.4-16-13.1-24-4.6-8-9.5-15.8-14.4-23.4 14.2 2.1 27.9 4.7 41 7.9zm-45.8 106.5c-7.8 13.5-15.8 26.3-24.1 38.2-14.9 1.3-30 2-45.2 2-15.1 0-30.2-.7-45-1.9-8.3-11.9-16.4-24.6-24.2-38-7.6-13.1-14.5-26.4-20.8-39.8 6.2-13.4 13.2-26.8 20.7-39.9 7.8-13.5 15.8-26.3 24.1-38.2 14.9-1.3 30-2 45.2-2 15.1 0 30.2.7 45 1.9 8.3 11.9 16.4 24.6 24.2 38 7.6 13.1 14.5 26.4 20.8 39.8-6.3 13.4-13.2 26.8-20.7 39.9zm32.3-13c5.4 13.4 10 26.8 13.8 39.8-13.1 3.2-26.9 5.9-41.2 8 4.9-7.7 9.8-15.6 14.4-23.7 4.6-8 8.9-16.1 13-24.1zM421.2 430c-9.3-9.6-18.6-20.3-27.8-32 9 .4 18.2.7 27.5.7 9.4 0 18.7-.2 27.8-.7-9 11.7-18.3 22.4-27.5 32zm-74.4-58.9c-14.2-2.1-27.9-4.7-41-7.9 3.7-12.9 8.3-26.2 13.5-39.5 4.1 8 8.4 16 13.1 24 4.7 8 9.5 15.8 14.4 23.4zM420.7 163c9.3 9.6 18.6 20.3 27.8 32-9-.4-18.2-.7-27.5-.7-9.4 0-18.7.2-27.8.7 9-11.7 18.3-22.4 27.5-32zm-74 58.9c-4.9 7.7-9.8 15.6-14.4 23.7-4.6 8-8.9 16-13 24-5.4-13.4-10-26.8-13.8-39.8 13.1-3.1 26.9-5.8 41.2-7.9zm-90.5 125.2c-35.4-15.1-58.3-34.9-58.3-50.6 0-15.7 22.9-35.6 58.3-50.6 8.6-3.7 18-7 27.7-10.1 5.7 19.6 13.2 40 22.5 60.9-9.2 20.8-16.6 41.1-22.2 60.6-9.9-3.1-19.3-6.5-28-10.2zM310 490c-13.6-7.8-19.5-37.5-14.9-75.7 1.1-9.4 2.9-19.3 5.1-29.4 19.6 4.8 41 8.5 63.5 10.9 13.5 18.5 27.5 35.3 41.6 50-32.6 30.3-63.2 46.9-84 46.9-4.5-.1-8.3-1-11.3-2.7zm237.2-76.2c4.7 38.2-1.1 67.9-14.6 75.8-3 1.8-6.9 2.6-11.5 2.6-20.7 0-51.4-16.5-84-46.6 14-14.7 28-31.4 41.3-49.9 22.6-2.4 44-6.1 63.6-11 2.3 10.1 4.1 19.8 5.2 29.1zm38.5-66.7c-8.6 3.7-18 7-27.7 10.1-5.7-19.6-13.2-40-22.5-60.9 9.2-20.8 16.6-41.1 22.2-60.6 9.9 3.1 19.3 6.5 28.1 10.2 35.4 15.1 58.3 34.9 58.3 50.6-.1 15.7-23 35.6-58.4 50.6zM320.8 78.4z"/>
        <circle cx="420.9" cy="296.5" r="45.7"/>
        <path d="M520.5 78.1z"/>
    </g>
</svg> -->

<!-- <svg width="640" height="480" xmlns="http://www.w3.org/2000/svg" xmlns:svg="http://www.w3.org/2000/svg"> -->
 <!-- Created with SVG-edit - http://svg-edit.googlecode.com/ -->
 <!-- <g>
  <title>Layer 1</title>
  <rect stroke="#000000" id="svg_1" height="278.99999" width="264" y="140.00001" x="176" stroke-width="5" fill="#cccccc"/>
  <ellipse stroke="#000000" ry="62" rx="64" id="svg_2" cy="282" cx="306" stroke-width="5" fill="#00ffff"/>
  <path stroke="#000000" id="svg_4" d="m312.00531,255.86057c-0.17547,0.00584 -0.34504,0.0214 -0.52124,0.03987c-2.81911,0.29549 -5.30729,2.17819 -6.57131,4.98354l-0.67017,2.12299c0.14458,-0.73572 0.36659,-1.44923 0.67017,-2.12299c-2.25421,-2.45775 -5.41823,-3.59215 -8.54456,-3.05989c-3.12634,0.53225 -5.84142,2.66683 -7.32524,5.76097c-4.18884,-2.71488 -9.4103,-2.55045 -13.44977,0.42859c-4.03947,2.97903 -6.19249,8.25365 -5.53814,13.57515l0.42816,2.16286c-0.19348,-0.70857 -0.33797,-1.42942 -0.42816,-2.16286l-0.06515,0.19934c-3.51135,0.40268 -6.39109,3.26965 -7.13908,7.10653c-0.74799,3.83687 0.80736,7.77377 3.85343,9.75776l4.75629,1.21599c-1.66077,0.14386 -3.31884,-0.27973 -4.75629,-1.21599c-2.34954,2.76958 -2.8902,6.86989 -1.34032,10.25612c1.54988,3.38623 4.85986,5.33604 8.27463,4.89383l2.07564,-0.57809c-0.66785,0.29416 -1.36145,0.4856 -2.07564,0.57809c1.93854,3.7554 5.1529,6.49484 8.92618,7.58494c3.77328,1.0901 7.78114,0.44584 11.12282,-1.7841c2.72614,4.5241 7.56466,6.90033 12.41661,6.09984c4.85194,-0.80049 8.85432,-4.63907 10.27581,-9.84746l0.49331,-2.91039c-0.07387,0.98875 -0.23415,1.96082 -0.49331,2.91039c3.33723,2.30302 7.53508,2.4328 10.9832,0.33888c3.44812,-2.09392 5.59966,-6.08676 5.63122,-10.43552l-1.23617,-6.49767l-4.86974,-4.39634c3.76553,2.48221 6.13951,6.26409 6.10592,10.89401c4.47742,0.04938 8.28066,-3.98796 9.98727,-8.62152c1.70661,-4.63356 1.06103,-9.91608 -1.69403,-13.88413c1.14275,-2.95438 1.07495,-6.31498 -0.18615,-9.20958c-1.26111,-2.8946 -3.58731,-5.04601 -6.38516,-5.89054c-0.62612,-3.83644 -3.20699,-6.92244 -6.61784,-7.93379c-3.41085,-1.01135 -7.04278,0.23574 -9.32641,3.2094l-1.38686,2.46187c0.35438,-0.89027 0.8172,-1.72009 1.38686,-2.46187c-1.60979,-2.33708 -4.13467,-3.65581 -6.76677,-3.56821l0.00001,-0.00001z" stroke-linecap="null" stroke-linejoin="null" stroke-dasharray="null" stroke-width="5" fill="#ffffff"/>
  <rect stroke="#000000" id="svg_5" height="60" width="217.99999" y="79" x="199" stroke-linecap="null" stroke-linejoin="null" stroke-dasharray="null" stroke-width="5" fill="#cccccc"/>
  <rect stroke="#000000" id="svg_7" height="31" width="33" y="93" x="229" stroke-linecap="null" stroke-linejoin="null" stroke-dasharray="null" stroke-width="5" fill="#cccccc"/>
 </g>
</svg> -->
<svg width="640" height="480" xmlns="http://www.w3.org/2000/svg" xmlns:svg="http://www.w3.org/2000/svg">
 <g>
  <title>Layer 1</title>
  <rect stroke="#000000" id="svg_1" height="278.99999" width="264" y="140.00001" x="176" stroke-width="5" fill="#cccccc"/>
  <ellipse id="svg_10" stroke="#000000" ry="80" rx="80" cy="282" cx="306" stroke-width="5" fill="#ffffff"/>
  <ellipse stroke="#000000" ry="60" rx="60" id="svg_2" cy="282" cx="306" stroke-width="5" fill="#00ffff"/>
  <path stroke="#ffaaff" id="svg_4" d="m315.11349,247.86126c-0.20786,0.00681 -0.40873,0.02497 -0.61746,0.04651c-3.33951,0.34474 -6.28701,2.54122 -7.78437,5.81413l-0.79388,2.47682c0.17127,-0.85834 0.43426,-1.69077 0.79388,-2.47682c-2.67033,-2.86737 -6.41843,-4.19084 -10.12188,-3.56987c-3.70346,0.62096 -6.91974,3.1113 -8.67747,6.72113c-4.9621,-3.16736 -11.14743,-2.97552 -15.93258,0.50002c-4.78515,3.47553 -7.33562,9.62926 -6.56048,15.83767l0.5072,2.52334c-0.2292,-0.82666 -0.40036,-1.66766 -0.5072,-2.52334l-0.07718,0.23256c-4.15954,0.46979 -7.57088,3.81459 -8.45695,8.29095c-0.88607,4.47635 0.9564,9.0694 4.56477,11.38405l5.6343,1.41865c-1.96735,0.16784 -3.93149,-0.32635 -5.6343,-1.41865c-2.78326,3.23118 -3.42373,8.01487 -1.58774,11.96547c1.83599,3.9506 5.75699,6.22538 9.80212,5.70947l2.4588,-0.67444c-0.79113,0.34319 -1.61277,0.56653 -2.4588,0.67444c2.29639,4.3813 6.10412,7.57731 10.57394,8.8491c4.46982,1.27178 9.21753,0.52015 13.17608,-2.08145c3.22938,5.27812 8.96109,8.05038 14.7087,7.11648c5.7476,-0.9339 10.48882,-5.41225 12.17271,-11.4887l0.58437,-3.39545c-0.08751,1.15354 -0.27737,2.28762 -0.58437,3.39545c3.95328,2.68686 8.92605,2.83827 13.01069,0.39536c4.08464,-2.44291 6.63335,-7.10122 6.67074,-12.17477l-1.46437,-7.58061l-5.76869,-5.12906c4.46064,2.89591 7.27286,7.3081 7.23307,12.70968c5.30395,0.05761 9.80926,-4.65262 11.83091,-10.05844c2.02165,-5.40582 1.2569,-11.56876 -2.00675,-16.19815c1.3537,-3.44678 1.27338,-7.36748 -0.22051,-10.74451c-1.49391,-3.37703 -4.24952,-5.88701 -7.56385,-6.8723c-0.7417,-4.47585 -3.799,-8.07618 -7.83949,-9.25609c-4.04049,-1.17991 -8.34287,0.27503 -11.04806,3.7443l-1.64287,2.87218c0.4198,-1.03865 0.96805,-2.00677 1.64287,-2.87218c-1.90696,-2.72659 -4.89793,-4.26511 -8.01591,-4.16291l0.00001,-0.00001l-0.00002,-0.00001z" stroke-linecap="null" stroke-linejoin="null" stroke-dasharray="null" stroke-width="5" fill="#ffffff"/>
  <rect stroke="#000000" id="svg_5" height="60" width="217.99999" y="79" x="199" stroke-linecap="null" stroke-linejoin="null" stroke-dasharray="null" stroke-width="5" fill="#cccccc"/>
  <rect id="svg_7" height="31" width="78" y="93.5" x="212" stroke-linecap="null" stroke-linejoin="null" stroke-dasharray="null" stroke-width="5" fill="#cccccc" stroke="#000000"/>
  <path fill="#cccccc" stroke-width="3" stroke-dasharray="null" stroke-linejoin="null" stroke-linecap="null" d="m243.5,108.75c0,-3.72928 2.90884,-6.75 6.5,-6.75c3.59116,0 6.5,3.02072 6.5,6.75c0,3.72928 -2.90884,6.75 -6.5,6.75c-3.59116,0 -6.5,-3.02072 -6.5,-6.75z" stroke="#000000" id="svg_6"/>
  <path fill="#cccccc" stroke-width="3" stroke-dasharray="null" stroke-linejoin="null" stroke-linecap="null" d="m267,108.25c0,-3.72928 2.90884,-6.75 6.5,-6.75c3.59116,0 6.5,3.02072 6.5,6.75c0,3.72928 -2.90884,6.75 -6.5,6.75c-3.59116,0 -6.5,-3.02072 -6.5,-6.75z" stroke="#000000" id="svg_8"/>
  <path fill="#cccccc" stroke-width="3" stroke-dasharray="null" stroke-linejoin="null" stroke-linecap="null" d="m219.5,108.75c0,-3.72928 2.90884,-6.75 6.5,-6.75c3.59116,0 6.5,3.02072 6.5,6.75c0,3.72928 -2.90884,6.75 -6.5,6.75c-3.59116,0 -6.5,-3.02072 -6.5,-6.75z" stroke="#000000" id="svg_9"/>
  <ellipse ry="10" rx="10" id="svg_11" cy="294" cx="285" stroke-linecap="null" stroke-linejoin="null" stroke-dasharray="null" stroke-width="4" stroke="#ffaaff" fill="#ffffff"/>
  <ellipse id="svg_12" ry="15" rx="15" cy="279.5" cx="327" stroke-linecap="null" stroke-linejoin="null" stroke-dasharray="null" stroke-width="3" stroke="#ffaaff" fill="#ffffff"/>
  <ellipse id="svg_13" ry="10" rx="10" cy="314.5" cx="310" stroke-linecap="null" stroke-linejoin="null" stroke-dasharray="null" stroke-width="4" stroke="#ffaaff" fill="#ffffff"/>
  <ellipse id="svg_14" ry="15" rx="15" cy="244.5" cx="307" stroke-linecap="null" stroke-linejoin="null" stroke-dasharray="null" stroke-width="3" stroke="#ffaaff" fill="#ffffff"/>
  <ellipse id="svg_15" ry="10" rx="10" cy="258.5" cx="270" stroke-linecap="null" stroke-linejoin="null" stroke-dasharray="null" stroke-width="4" stroke="#ffaaff" fill="#ffffff"/>
 </g>
</svg>